<svg version="1.1" width="31.88" height="32" id="Layer_1" xmlns="http://www.w3.org/2000/svg" x="0" y="0" viewBox="0 0 256 256" style="enable-background:new 0 0 256 256" xml:space="preserve"><style>.st4{fill:#3762cc}.st6{fill:#6bdddd}</style><path d="M155.302 27.707a89.422 89.422 0 0 0-4.487-2.116l-80.23 157.108a89.966 89.966 0 0 0 4.488 2.468 90.876 90.876 0 0 0 4.607 2.171l80.228-157.104a88.986 88.986 0 0 0-4.606-2.527z" style="fill:#a4c9ff"/><ellipse transform="rotate(-63 114.13 106.305)" cx="114.128" cy="106.305" rx="76.71" ry="76.744" style="fill:#e0ebfc"/><path class="st6" d="M120.056 69.063c1.362 5.321 1.779 5.992 1.06 7.405-3.759 7.377-3.734 7.643-4.519 8.303l-2.027 1.705a3.25 3.25 0 0 1-4.705-.557l-3.422-4.633a3.246 3.246 0 0 1 .573-4.456c5.078-4.096 5.252-4.074 5.662-5.106l1.211-3.053c1.155-2.911 5.391-2.64 6.167.392zM91.697 34.294c10.628 8.978 10.291 8.481 10.605 9.549l1.33 4.525c.19.647.076 5.436.08 4.884-.008 1.045.643 1.8.488 1.575a2.723 2.723 0 0 1-.646 3.76l-3.002 2.163a2.725 2.725 0 0 1-3.974-.887l-1.968-3.539a2.724 2.724 0 0 0-3.326-1.232c-2.311.854-4.576 1.278-4.371 3.741.717 8.59.415 9.536 2.165 10.428 7.939 4.045 9.356 4.238 9.25 6.511-.266 5.667-.151 6.098-.566 6.912-.805 1.58-1.049 2.38-2.171 2.855l-10.644 4.51a2.726 2.726 0 0 1-2.754-.372l-8.909-7.048c-1.323-1.047-2.953-7.381-4.009-8.583-2.307-2.625-3.14-4.139-5.164-3.623-7.883 2.009-8.425 1.866-9.149 3.287-2.43 4.77-3.526 5.991-2.288 7.724.428.599 6.663 9.485 7.258 9.914.277.199 12.319 8.89 12.622 9.045 6.379 3.25 7.706 3.464 7.772 5.543.176 5.532.176 10.143.175 10.068.017 2.031 3.048 4.766 1.094 6.998-3.68 4.205-2.872 3.415-7.155 7a2.708 2.708 0 0 1-2.077.61c-5.967-.735-6.938-1.184-8.136.267l-1.554 1.883c-.682.826-2.895 8.163-3.387 9.034l-4.119 7.273c-1.004 1.774-3.511 1.842-4.65.151-15.074-22.369-17.88-52.025-4.77-77.754 9.386-18.422 25.197-31.424 43.315-37.674a2.714 2.714 0 0 1 2.635.502zM95.357 180.699l3.372-3.321 4.718-2.216 5.773-2.1c3.517-1.279 2.848-8.351 7.797-7.218l3.237.741c2.077.475 5.514 3.678 8.111 2.835l3.991-1.296c2.7-.877 3.589-5.426 6.564-5.994 1.529-.292 4.856-1.41 6.119 1.806l.001.004a3.582 3.582 0 0 0 4.045 2.202c2.64-.534 3.545-.551 4.495-1.254 4.567-3.381 6.339-4.11 6.028-6.709l-.499-4.167c-.344-2.876-4.104-3.704-4.132-6.767-.124-13.359-1.535-13.573-.026-15.578 7.08-9.405 6.995-9.966 6.747-11.388-.569-3.268-.562-6.397-3.848-6.705-1.47-.138-2.199-.102-3.061-.541-5.922-3.017-7.589-3.361-7.876-5.802-.928-7.897-1.136-8.107-.495-9.365 3.589-7.044 3.63-7.718 5.286-8.356 8.503-3.274 8.319-3.332 9.415-3.239l6.203.529a6.392 6.392 0 0 0 6.239-3.467c1.708-3.352 2.113-4.914 4.271-5.324l4.146-.787a3.58 3.58 0 0 1 4.024 2.251c7.26 19.437 6.663 41.732-3.497 61.672-16.572 32.53-53.176 48.165-87.148 39.554z"/><path class="st6" d="M147.658 147.559c-9.958-2.693-9.795-2.858-11.02-2.331-3.021 1.299-3.825 1.891-5.227 1.355-5.903-2.258-6.106-2.512-7.287-2.191-5.142 1.395-6.054 1.369-6.798 2.83l-.001.002a2.897 2.897 0 0 0 1.652 4.058c9.827 3.332 9.565 3.393 10.617 3.166 5.884-1.268 6.746-1.203 7.674-2.103 1.241-1.204 2.624-3.034 4.8-1.926l2.125 1.083c1.426.726 3.17.16 3.896-1.265l.995-1.952-1.426-.726z"/><path class="st4" d="M114.026 185.013c-12.019 0-24.208-2.757-35.632-8.577-38.687-19.712-54.131-67.21-34.428-105.88 9.545-18.732 25.816-32.625 45.818-39.12 19.998-6.494 41.335-4.812 60.077 4.737 38.687 19.712 54.131 67.21 34.428 105.881-13.885 27.251-41.58 42.959-70.263 42.959zM45.749 71.463l1.782.908c-18.702 36.705-4.042 81.79 32.68 100.5 10.841 5.524 22.416 8.141 33.821 8.142 27.229.001 53.513-14.907 66.693-40.776 18.702-36.705 4.042-81.79-32.68-100.5-17.788-9.063-38.038-10.662-57.026-4.497-18.984 6.164-34.429 19.351-43.488 37.131l-1.782-.908z"/><path d="M164.38 248H69.938a6.779 6.779 0 1 1 0-13.558h94.443a6.779 6.779 0 0 1 6.779 6.779 6.78 6.78 0 0 1-6.78 6.779z" style="fill:#4671c6"/><path d="M115.113 209.912c-16.109 0-32.105-3.807-46.875-11.332a104.317 104.317 0 0 1-12.989-7.857c-3.604-2.556-4.304-7.619-1.47-11.009 2.534-3.031 6.957-3.555 10.18-1.27a89.322 89.322 0 0 0 11.115 6.722c21.041 10.721 44.995 12.609 67.447 5.319 22.454-7.29 40.72-22.886 51.435-43.915 22.119-43.412 4.78-96.734-38.653-118.864a89.205 89.205 0 0 0-11.964-5.038c-3.743-1.264-5.919-5.15-4.956-8.982 1.077-4.286 5.585-6.696 9.771-5.282a104.246 104.246 0 0 1 13.984 5.889c50.828 25.898 71.119 88.303 45.232 139.111-12.54 24.613-33.92 42.867-60.199 51.399-10.516 3.415-21.312 5.109-32.058 5.109z" style="fill:#f9a7a7"/><path d="M115.113 209.912c-4.619 0-9.227-.324-13.801-.947v25.478h31.693v-26.122a102.902 102.902 0 0 1-17.892 1.591z" style="fill:#f9cfcf"/><path class="st4" d="M133.006 236.442h-31.693a2 2 0 0 1-2-2v-25.478a2 2 0 0 1 2.271-1.982c4.521.617 9.072.929 13.53.929 5.774 0 11.678-.525 17.545-1.562a2 2 0 0 1 2.348 1.97v26.122a2.002 2.002 0 0 1-2.001 2.001zm-29.693-4h27.693v-21.764c-5.32.82-10.656 1.234-15.893 1.234-3.892 0-7.852-.229-11.801-.681v21.211z"/><path class="st4" d="M164.38 250H69.938c-4.841 0-8.778-3.938-8.778-8.779s3.938-8.779 8.778-8.779h94.442c4.841 0 8.779 3.938 8.779 8.779S169.221 250 164.38 250zm-94.442-13.558c-2.635 0-4.778 2.144-4.778 4.779S67.303 246 69.938 246h94.442c2.636 0 4.779-2.144 4.779-4.779s-2.144-4.779-4.779-4.779H69.938zM115.113 211.913c-16.664 0-32.74-3.886-47.783-11.55a106.653 106.653 0 0 1-13.238-8.008 9.64 9.64 0 0 1-3.981-6.607 9.4 9.4 0 0 1 2.134-7.316c3.216-3.847 8.749-4.542 12.871-1.619a87.662 87.662 0 0 0 10.866 6.572c20.565 10.478 43.977 12.325 65.921 5.198 21.946-7.125 39.8-22.368 50.271-42.92 21.619-42.43 4.672-94.545-37.778-116.174a87.466 87.466 0 0 0-11.695-4.925c-4.788-1.617-7.478-6.503-6.256-11.364a9.398 9.398 0 0 1 4.664-6.026 9.647 9.647 0 0 1 7.686-.663 106.705 106.705 0 0 1 14.253 6.002c51.811 26.398 72.493 90.01 46.105 141.801-12.782 25.089-34.575 43.696-61.363 52.394-10.643 3.453-21.636 5.205-32.677 5.205zM59.527 179.02a5.465 5.465 0 0 0-4.213 1.978 5.441 5.441 0 0 0-1.237 4.236 5.562 5.562 0 0 0 2.329 3.859 102.578 102.578 0 0 0 12.74 7.706c14.475 7.375 29.94 11.114 45.967 11.114 10.621 0 21.199-1.686 31.44-5.01 25.771-8.368 46.736-26.269 59.033-50.405 25.388-49.826 5.488-111.024-44.357-136.421a102.637 102.637 0 0 0-13.716-5.776 5.552 5.552 0 0 0-4.49.384 5.447 5.447 0 0 0-2.701 3.49c-.708 2.819.863 5.657 3.656 6.6a91.555 91.555 0 0 1 12.232 5.151c44.415 22.63 62.146 77.159 39.526 121.554-10.957 21.504-29.637 37.454-52.6 44.909-22.961 7.455-47.456 5.523-68.973-5.439a91.541 91.541 0 0 1-11.364-6.874 5.636 5.636 0 0 0-3.272-1.056z"/></svg>